<svg width="24" height="24" viewBox="0 0 24 24" fill="none" xmlns="http://www.w3.org/2000/svg">
<path d="M19.25 20.25H4.75C4.19772 20.25 3.75 19.8023 3.75 19.25V4.75C3.75 4.19772 4.19772 3.75 4.75 3.75H19.25C19.8023 3.75 20.25 4.19772 20.25 4.75V19.25C20.25 19.8023 19.8023 20.25 19.25 20.25Z" stroke="#B4B4B4" stroke-width="1.5" stroke-linecap="round" stroke-linejoin="round"/>
<path d="M6.75 15.75H8.25M11.25 15.75H12.75M6.75 11.25H8.25M11.25 11.25H12.75M15.75 11.25H17.25" stroke="#B4B4B4" stroke-width="1.5" stroke-linecap="round" stroke-linejoin="round"/>
<path d="M8.25 2.25V5.25M15.75 5.25V2.25M3.75 8.25H20.25V4.75C20.25 4.19772 19.8023 3.75 19.25 3.75H4.75C4.19772 3.75 3.75 4.19772 3.75 4.75V8.25Z" stroke="#B4B4B4" stroke-width="1.5" stroke-linecap="round" stroke-linejoin="round"/>
</svg>
