<svg width="1163" height="509" viewBox="0 0 1163 509" fill="none" xmlns="http://www.w3.org/2000/svg">
<path d="M178.266 218V267.5" stroke="#393939" stroke-width="2"/>
<path d="M178.266 397V446.5" stroke="#393939" stroke-width="2"/>
<path d="M241.266 331L290.766 331" stroke="#393939" stroke-width="2"/>
<path d="M225.266 375L262.621 409.355" stroke="#393939" stroke-width="2"/>
<path d="M90.2656 251L127.621 285.355" stroke="#393939" stroke-width="2"/>
<path d="M127.621 375L90.2658 409.355" stroke="#393939" stroke-width="2"/>
<path d="M262.621 251L225.266 285.355" stroke="#393939" stroke-width="2"/>
<path d="M65.2656 331L114.766 331" stroke="#393939" stroke-width="2"/>
<circle cx="178.266" cy="188" r="35" fill="#464646"/>
<path d="M162.625 186.565C162.625 187.937 163.983 188.805 165.873 188.805C167.749 188.805 169.107 187.937 169.107 186.565C169.107 185.193 167.749 184.325 165.873 184.325C163.983 184.325 162.625 185.193 162.625 186.565ZM166.587 192.347H171.613V193.523H160.161V192.347H165.145V189.925C162.835 189.715 161.225 188.441 161.225 186.565C161.225 184.507 163.185 183.177 165.873 183.177C168.547 183.177 170.521 184.507 170.521 186.565C170.521 188.441 168.897 189.729 166.587 189.939V192.347ZM173.04 192.305H184.492V193.495H173.04V192.305ZM174.328 183.303H175.756V185.515H181.748V183.303H183.176V189.967H174.328V183.303ZM175.756 186.663V188.805H181.748V186.663H175.756ZM189.755 184.997V185.907C189.755 188.063 190.567 190.247 192.331 191.269L191.491 192.319C190.301 191.619 189.517 190.373 189.069 188.903C188.621 190.499 187.809 191.857 186.591 192.627L185.723 191.563C187.515 190.443 188.355 188.161 188.355 185.907V184.997H186.129V183.807H191.841V184.997H189.755ZM192.779 186.873V182.673H194.137V194.461H192.779V188.049H190.917V186.873H192.779ZM195.327 182.421H196.699V195.063H195.327V182.421Z" fill="#EFEFEF"/>
<circle cx="178.266" cy="331" r="70" fill="#ED6171"/>
<path d="M149.306 325.14V326.922H135.824V325.14H141.404V323.844H143.78V325.14H149.306ZM139.172 337.29V338.604H145.958V337.29H139.172ZM136.85 340.35V335.544H148.298V340.35H136.85ZM139.586 329.694C139.586 330.234 140.54 330.468 142.592 330.468C144.662 330.468 145.598 330.234 145.598 329.694C145.598 329.154 144.662 328.938 142.592 328.938C140.54 328.938 139.586 329.154 139.586 329.694ZM143.78 332.844H150.098V334.68H135.086V332.844H141.404V332.016C138.614 331.854 137.048 331.08 137.048 329.694C137.048 328.128 139.046 327.336 142.592 327.336C146.156 327.336 148.154 328.128 148.154 329.694C148.154 331.08 146.588 331.854 143.78 332.016V332.844ZM169.511 323.988V335.886H167.117V323.988H169.511ZM158.297 329.244C158.297 330.576 159.269 331.386 160.493 331.386C161.735 331.386 162.671 330.576 162.671 329.244C162.671 327.876 161.735 327.084 160.493 327.084C159.269 327.084 158.297 327.876 158.297 329.244ZM164.993 329.244C164.993 331.656 163.031 333.438 160.493 333.438C157.955 333.438 155.975 331.656 155.975 329.244C155.975 326.796 157.955 325.032 160.493 325.032C163.031 325.032 164.993 326.796 164.993 329.244ZM160.853 338.37H169.925V340.26H158.477V334.716H160.853V338.37ZM175.035 332.088V334.986C176.763 334.968 178.059 334.896 179.553 334.662L179.751 336.552C177.879 336.858 176.295 336.894 173.919 336.894H172.785V325.788H178.923V327.678H175.035V330.252H178.293V332.088H175.035ZM180.849 330V324.276H183.063V339.81H180.849V331.926H179.049V330H180.849ZM184.287 323.952H186.537V340.53H184.287V323.952ZM192.17 331.782V334.77C194.69 334.752 196.778 334.626 199.118 334.23L199.37 336.156C196.67 336.624 194.24 336.732 191.234 336.732H189.74V329.91H195.122V327.264H189.722V325.374H197.552V331.782H192.17ZM200.27 323.952H202.646V340.584H200.27V323.952ZM209.953 334.806C211.177 334.806 211.987 333.492 211.987 331.026C211.987 328.578 211.177 327.264 209.953 327.264C208.747 327.264 207.937 328.578 207.937 331.026C207.937 333.492 208.747 334.806 209.953 334.806ZM216.955 323.952H219.331V340.584H216.955V331.854H214.201C213.949 335.022 212.257 336.966 209.953 336.966C207.487 336.966 205.669 334.68 205.669 331.026C205.669 327.39 207.487 325.122 209.953 325.122C212.185 325.122 213.859 326.94 214.183 329.928H216.955V323.952Z" fill="#EFEFEF"/>
<circle cx="178.266" cy="474" r="35" fill="#464646"/>
<path d="M166.815 469.765H172.807C172.807 473.531 171.295 476.723 166.955 478.823L166.185 477.675C169.503 476.079 171.071 473.853 171.323 470.941H166.815V469.765ZM175.089 468.435H176.531V481.077H175.089V468.435ZM179.47 469.401H185.448C185.448 472.747 183.222 475.127 179.54 476.247L178.938 475.099C181.836 474.217 183.628 472.579 183.88 470.577H179.47V469.401ZM182.284 476.667V479.663H189.34V480.839H180.828V476.667H182.284ZM188.836 472.131H190.642V473.321H188.836V477.591H187.394V468.435H188.836V472.131Z" fill="#EFEFEF"/>
<circle cx="321.266" cy="330" r="35" fill="#464646"/>
<path d="M318.145 335.761V334.361H312.783V335.761H318.145ZM318.145 333.241V331.813H319.573V336.923H311.355V331.813H312.783V333.241H318.145ZM312.573 329.727C313.665 329.727 314.477 329.013 314.477 327.949C314.477 326.871 313.665 326.185 312.573 326.185C311.453 326.185 310.655 326.871 310.655 327.949C310.655 329.013 311.453 329.727 312.573 329.727ZM318.131 324.435H319.573V331.211H318.131V328.523H315.793C315.541 329.951 314.253 330.917 312.573 330.917C310.669 330.917 309.269 329.699 309.269 327.949C309.269 326.213 310.669 324.995 312.573 324.995C314.239 324.995 315.513 325.933 315.793 327.347H318.131V324.435ZM325.774 327.851V328.299C325.774 330.273 326.628 332.289 328.364 333.227L327.566 334.305C326.376 333.661 325.564 332.499 325.102 331.127C324.654 332.611 323.856 333.885 322.652 334.585L321.826 333.493C323.562 332.471 324.402 330.315 324.402 328.299V327.851H322.218V326.661H324.402V324.869H325.774V326.661H327.944V327.851H325.774ZM328.84 329.335V324.687H330.198V336.461H328.84V330.511H327.132V329.335H328.84ZM331.388 324.435H332.76V337.077H331.388V324.435Z" fill="#EFEFEF"/>
<circle cx="35.2656" cy="330" r="35" fill="#464646"/>
<path d="M25.0467 333.759V332.597H33.5727V337.091H32.1307V333.759H25.0467ZM29.4987 328.971H32.1307V327.557H29.4987V328.971ZM28.0847 330.161V328.243H25.1027V330.161H28.0847ZM32.1307 324.435H33.5727V331.967H32.1307V330.133H29.4987V331.323H23.6747V325.177H25.1027V327.123H28.0847V325.177H29.4987V326.381H32.1307V324.435ZM40.6416 326.885V328.089C40.6416 330.189 41.9436 332.373 43.9176 333.213L43.1196 334.347C41.6496 333.703 40.5156 332.331 39.9276 330.693C39.3676 332.457 38.2336 333.955 36.7496 334.669L35.9236 333.521C37.8836 332.611 39.1856 330.259 39.1856 328.089V326.885H36.3716V325.695H43.4556V326.885H40.6416ZM44.9256 324.435H46.3816V337.077H44.9256V324.435Z" fill="#EFEFEF"/>
<circle cx="286.266" cy="432" r="35" fill="#464646"/>
<path d="M284.797 426.435V433.113H283.425V426.435H284.797ZM280.947 433.015V429.795H279.225V428.619H280.947V426.659H282.305V433.015H280.947ZM280.289 431.601L279.547 432.707C278.427 432.231 277.685 431.391 277.251 430.341C276.803 431.531 276.005 432.511 274.829 433.071L274.031 431.979C275.711 431.223 276.551 429.571 276.551 428.017V426.939H277.951V428.059C277.951 429.543 278.721 430.971 280.289 431.601ZM277.811 437.831H285.259V438.965H276.383V435.703H283.383V434.751H276.355V433.631H284.797V436.767H277.811V437.831ZM294.134 432.917V428.787H291.222V432.917H294.134ZM289.78 432.917V428.787H287.918V427.625H297.424V428.787H295.562V432.917H297.396V434.093H287.96V432.917H289.78ZM286.966 436.333H298.446V437.523H286.966V436.333Z" fill="#EFEFEF"/>
<circle cx="70.2656" cy="228" r="35" fill="#464646"/>
<path d="M62.7627 223.485V225.557C62.7627 227.881 64.0507 230.205 66.0387 231.101L65.1987 232.249C63.7427 231.563 62.6367 230.163 62.0627 228.455C61.4887 230.289 60.3687 231.787 58.8427 232.529L57.9887 231.325C60.0047 230.415 61.3207 227.993 61.3207 225.557V223.485H62.7627ZM67.0467 222.421H68.5027V235.105H67.0467V222.421ZM80.6396 227.461L79.2256 227.307C79.5476 226.061 79.5616 225.151 79.5616 224.199H72.3096V223.037H80.9896V224.101C80.9896 225.109 80.9896 226.159 80.6396 227.461ZM76.6496 233.971C78.5116 233.971 79.6316 233.509 79.6316 232.711C79.6316 231.927 78.5116 231.465 76.6496 231.465C74.7736 231.465 73.6256 231.927 73.6256 232.711C73.6256 233.509 74.7736 233.971 76.6496 233.971ZM76.6496 230.359C79.3376 230.359 81.0736 231.255 81.0736 232.711C81.0736 234.181 79.3376 235.077 76.6496 235.077C73.9196 235.077 72.1976 234.181 72.1976 232.711C72.1976 231.255 73.9196 230.359 76.6496 230.359ZM76.9296 228.217H82.3896V229.379H70.9936V228.217H75.4736V225.893H76.9296V228.217Z" fill="#EFEFEF"/>
<circle cx="286.266" cy="228" r="35" fill="#464646"/>
<path d="M274.717 223.765H280.583C280.583 227.433 279.015 230.681 274.885 232.767L274.087 231.661C277.181 230.079 278.847 227.853 279.141 224.941H274.717V223.765ZM285.805 227.419V228.623H283.887V235.063H282.445V222.421H283.887V227.419H285.805ZM288.926 231.661V230.513H297.452V235.049H296.01V231.661H288.926ZM296.01 222.421H297.452V229.967H296.01V228.441H292.944V227.265H296.01V225.753H293.14C292.3 227.727 290.396 229.141 287.694 229.869L287.134 228.721C290.074 227.937 291.824 226.369 292.09 224.423H287.806V223.261H293.63C293.63 223.723 293.588 224.185 293.49 224.591H296.01V222.421Z" fill="#EFEFEF"/>
<circle cx="70.2656" cy="432" r="35" fill="#464646"/>
<path d="M63.1127 434.933V431.839H59.9767V434.933H63.1127ZM63.1127 430.691V427.471H64.5407V436.095H58.5347V427.471H59.9767V430.691H63.1127ZM69.8607 431.293V432.497H67.8867V439.091H66.4447V426.435H67.8867V431.293H69.8607ZM78.2176 431.447L78.3576 432.609C76.7196 432.959 75.2356 433.043 72.5196 433.043H71.4976V427.317H77.1256V428.493H72.9396V431.853C75.3336 431.839 76.6916 431.769 78.2176 431.447ZM72.5336 435.689V434.513H80.8496V439.105H79.4076V435.689H72.5336ZM82.6416 429.515V430.705H80.8496V433.855H79.4076V426.435H80.8496V429.515H82.6416Z" fill="#EFEFEF"/>
<path d="M984.266 216V265.5" stroke="#393939" stroke-width="2"/>
<path d="M984.266 395V444.5" stroke="#393939" stroke-width="2"/>
<path d="M1047.27 329L1096.77 329" stroke="#393939" stroke-width="2"/>
<path d="M1031.27 373L1068.62 407.355" stroke="#393939" stroke-width="2"/>
<path d="M896.266 249L933.621 283.355" stroke="#393939" stroke-width="2"/>
<path d="M933.621 373L896.266 407.355" stroke="#393939" stroke-width="2"/>
<path d="M1068.62 249L1031.27 283.355" stroke="#393939" stroke-width="2"/>
<path d="M871.266 329L920.766 329" stroke="#393939" stroke-width="2"/>
<circle cx="1092.27" cy="228" r="35" fill="#464646"/>
<path d="M1085.12 228.609L1084.49 229.799C1082.44 229.379 1080.66 228.063 1079.83 226.327C1079.01 228.063 1077.23 229.379 1075.17 229.799L1074.55 228.609C1077.05 228.147 1079.08 226.201 1079.08 224.199V223.247H1080.6V224.199C1080.6 226.215 1082.63 228.161 1085.12 228.609ZM1074.16 232.263H1085.61V233.453H1074.16V232.263ZM1088.02 227.419L1095.73 227.125C1095.76 226.453 1095.76 225.809 1095.76 225.165V224.801H1088.37V223.639H1097.18V225.165C1097.18 226.999 1097.18 228.735 1096.62 231.395L1095.19 231.269C1095.45 230.135 1095.59 229.141 1095.66 228.217L1088.2 228.595L1088.02 227.419ZM1087.04 232.249H1098.46V233.439H1087.04V232.249ZM1107.02 227.601L1107.13 228.777C1105.24 229.085 1103.66 229.127 1101.42 229.127H1100.42V225.445H1104.62V224.101H1100.4V222.925H1106.05V226.537H1101.84V227.951C1103.81 227.951 1105.3 227.895 1107.02 227.601ZM1108.96 233.761V232.445H1103.49V233.761H1108.96ZM1108.96 231.311V229.995H1110.39V234.923H1102.06V229.995H1103.49V231.311H1108.96ZM1108.95 222.435H1110.39V229.421H1108.95V226.145H1106.77V224.983H1108.95V222.435Z" fill="#EFEFEF"/>
<circle cx="1127.27" cy="330" r="35" fill="#464646"/>
<path d="M1115.59 325.765H1121.46C1121.46 329.475 1120.08 332.653 1115.8 334.781L1115.03 333.661C1118.32 332.037 1119.75 329.811 1119.99 326.941H1115.59V325.765ZM1124.12 324.435H1125.57V337.091H1124.12V330.595H1121.4V329.405H1124.12V324.435ZM1135.13 328.285V325.961H1132.22V328.285H1135.13ZM1130.78 328.285V325.961H1128.99V324.799H1138.35V325.961H1136.58V328.285H1138.28V329.447H1129.06V328.285H1130.78ZM1136.6 335.775V334.053H1130.77V335.775H1136.6ZM1139.4 331.617H1134.41V332.905H1138.02V336.923H1129.34V332.905H1132.96V331.617H1127.97V330.455H1139.4V331.617Z" fill="#EFEFEF"/>
<circle cx="984.266" cy="474" r="35" fill="#464646"/>
<path d="M974.565 472.565C974.565 473.937 975.923 474.805 977.813 474.805C979.689 474.805 981.047 473.937 981.047 472.565C981.047 471.193 979.689 470.325 977.813 470.325C975.923 470.325 974.565 471.193 974.565 472.565ZM978.527 478.347H983.553V479.523H972.101V478.347H977.085V475.925C974.775 475.715 973.165 474.441 973.165 472.565C973.165 470.507 975.125 469.177 977.813 469.177C980.487 469.177 982.461 470.507 982.461 472.565C982.461 474.441 980.837 475.729 978.527 475.939V478.347ZM995.396 468.421V474.847H993.954V468.421H995.396ZM986.618 471.697C986.618 472.705 987.43 473.363 988.522 473.363C989.628 473.363 990.454 472.705 990.454 471.697C990.454 470.689 989.628 470.031 988.522 470.031C987.43 470.031 986.618 470.689 986.618 471.697ZM991.854 471.697C991.854 473.363 990.44 474.539 988.522 474.539C986.618 474.539 985.218 473.363 985.218 471.697C985.218 470.031 986.618 468.841 988.522 468.841C990.44 468.841 991.854 470.031 991.854 471.697ZM988.55 479.789H995.774V480.923H987.136V477.605H993.968V476.555H987.108V475.421H995.396V478.669H988.55V479.789Z" fill="#EFEFEF"/>
<circle cx="1092.27" cy="432" r="35" fill="#464646"/>
<path d="M1092.05 434.933V431.839H1088.92V434.933H1092.05ZM1092.05 430.691V427.471H1093.48V436.095H1087.47V427.471H1088.92V430.691H1092.05ZM1098.8 431.293V432.497H1096.83V439.091H1095.38V426.435H1096.83V431.293H1098.8Z" fill="#EFEFEF"/>
<circle cx="876.266" cy="432" r="35" fill="#464646"/>
<path d="M854.022 436.823V437.859H861.582V438.965H852.594V435.801H859.804V434.877H852.566V433.785H861.218V436.823H854.022ZM853.924 428.745C853.924 429.473 854.974 429.851 856.934 429.851C858.894 429.851 859.944 429.473 859.944 428.745C859.944 428.017 858.894 427.639 856.934 427.639C854.974 427.639 853.924 428.017 853.924 428.745ZM857.634 431.755H862.646V432.917H851.208V431.755H856.192V430.915C853.812 430.775 852.426 430.033 852.426 428.745C852.426 427.331 854.092 426.561 856.934 426.561C859.762 426.561 861.442 427.331 861.442 428.745C861.442 430.033 860.028 430.789 857.634 430.915V431.755ZM866.271 432.245V434.905C868.273 434.891 870.023 434.793 872.025 434.471L872.179 435.647C870.009 436.025 868.119 436.095 865.893 436.095H864.815V431.083H869.225V428.731H864.787V427.555H870.681V432.245H866.271ZM873.075 426.407H874.531V439.105H873.075V426.407ZM876.98 436.305H888.432V437.495H876.98V436.305ZM878.268 427.303H879.696V429.515H885.688V427.303H887.116V433.967H878.268V427.303ZM879.696 430.663V432.805H885.688V430.663H879.696ZM891.399 430.201C891.399 431.293 892.211 432.021 893.331 432.021C894.423 432.021 895.235 431.293 895.235 430.201C895.235 429.095 894.423 428.367 893.331 428.367C892.211 428.367 891.399 429.095 891.399 430.201ZM898.889 429.347H896.495C896.565 429.613 896.607 429.893 896.607 430.201C896.607 430.509 896.565 430.789 896.481 431.055H898.889V429.347ZM898.889 432.217H895.837C895.249 432.861 894.353 433.239 893.331 433.239C891.441 433.239 890.027 431.979 890.027 430.201C890.027 428.409 891.441 427.149 893.331 427.149C894.367 427.149 895.249 427.541 895.837 428.171H898.889V426.421H900.331V433.883H898.889V432.217ZM896.117 437.943C897.923 437.943 898.959 437.481 898.959 436.613C898.959 435.773 897.923 435.297 896.117 435.297C894.325 435.297 893.275 435.773 893.275 436.613C893.275 437.481 894.325 437.943 896.117 437.943ZM896.117 434.163C898.749 434.163 900.387 435.073 900.387 436.613C900.387 438.167 898.749 439.077 896.117 439.077C893.485 439.077 891.861 438.167 891.861 436.613C891.861 435.073 893.485 434.163 896.117 434.163Z" fill="#EFEFEF"/>
<circle cx="984.266" cy="188" r="35" fill="#464646"/>
<path d="M976.577 182.449V191.479H975.135V182.449H976.577ZM971.397 188.315V184.647H968.219V188.315H971.397ZM972.797 183.485V189.477H966.805V183.485H972.797ZM969.773 193.565H976.941V194.727H968.317V190.653H969.773V193.565ZM979.544 183.191H985.438C985.438 186.467 983.268 188.763 979.53 189.757L978.97 188.609C981.924 187.825 983.646 186.285 983.884 184.367H979.544V183.191ZM982.26 191.255V193.761H987.482V191.255H982.26ZM980.832 194.923V190.107H988.91V194.923H980.832ZM990.702 185.361V186.551H988.91V189.561H987.468V182.421H988.91V185.361H990.702ZM1000.95 189.883V186.131H998.387V184.955H1000.95V182.421H1002.39V189.883H1000.95ZM999.423 188.245L998.653 189.379C997.295 188.889 996.315 187.937 995.769 186.705C995.209 188.105 994.145 189.211 992.619 189.757L991.863 188.595C993.893 187.909 994.999 186.201 994.999 184.353V183.107H996.455V184.283C996.455 186.033 997.505 187.615 999.423 188.245ZM998.177 193.943C999.969 193.943 1001.01 193.481 1001.01 192.655C1001.01 191.829 999.969 191.367 998.177 191.367C996.385 191.367 995.363 191.829 995.363 192.655C995.363 193.481 996.385 193.943 998.177 193.943ZM998.177 190.233C1000.82 190.233 1002.45 191.129 1002.45 192.655C1002.45 194.181 1000.82 195.077 998.177 195.077C995.545 195.077 993.921 194.181 993.921 192.655C993.921 191.129 995.545 190.233 998.177 190.233Z" fill="#EFEFEF"/>
<circle cx="876.266" cy="228" r="35" fill="#464646"/>
<path d="M866.817 226.565V228.637H872.809V226.565H866.817ZM870.527 232.347H875.553V233.537H864.101V232.347H869.085V229.799H865.389V223.275H866.817V225.403H872.809V223.275H874.237V229.799H870.527V232.347ZM887.802 226.215L887.284 227.335C885.226 227.055 883.518 226.103 882.692 224.787C881.88 226.103 880.172 227.055 878.114 227.335L877.582 226.215C880.116 225.893 881.95 224.521 881.95 223.051V222.561H883.434V223.051C883.434 224.507 885.296 225.893 887.802 226.215ZM885.506 233.775V232.417H879.808V233.775H885.506ZM885.506 231.311V230.023H886.948V234.923H878.38V230.023H879.808V231.311H885.506ZM876.966 228.091H888.418V229.239H876.966V228.091Z" fill="#EFEFEF"/>
<circle cx="841.266" cy="330" r="35" fill="#464646"/>
<path d="M830.263 331.211L829.759 330.077C832.209 329.783 833.945 328.453 834.071 327.095H830.179V325.933H834.085V324.449H835.527V325.933H839.447V327.095H835.541C835.667 328.439 837.403 329.783 839.853 330.077L839.335 331.211C837.277 330.945 835.625 330.007 834.799 328.747C833.987 330.007 832.335 330.931 830.263 331.211ZM840.525 332.037V333.227H835.527V337.105H834.085V333.227H829.101V332.037H840.525ZM848.686 328.229H851.01V324.449H852.452V333.843H851.01V329.419H848.686V328.229ZM849.498 331.057L848.798 332.191C847.37 331.743 846.306 330.819 845.746 329.629C845.186 330.917 844.136 331.925 842.666 332.415L841.952 331.295C843.898 330.637 844.99 329.097 844.99 327.431V327.193H842.33V326.031H844.99V324.519H846.446V326.031H849.092V327.193H846.432V327.431C846.432 328.985 847.552 330.455 849.498 331.057ZM845.704 335.663H852.774V336.839H844.262V333.031H845.704V335.663Z" fill="#EFEFEF"/>
<circle cx="984.266" cy="331" r="70" fill="#B4B4B4"/>
<path d="M957.614 334.824V331.152H954.284V334.824H957.614ZM957.614 329.298V325.284H959.972V336.714H951.926V325.284H954.284V329.298H957.614ZM966.812 330.144V332.124H964.4V340.548H962.024V323.988H964.4V330.144H966.812ZM971.347 327.372V334.662C974.245 334.644 976.099 334.554 978.097 334.176L978.313 336.138C976.063 336.57 973.957 336.642 970.429 336.642H968.971V325.446H976.981V327.372H971.347ZM979.339 323.97H981.715V340.602H979.339V323.97ZM989.85 326.454C988.68 326.454 987.852 327.048 987.852 328.056C987.852 329.082 988.68 329.658 989.85 329.658C991.02 329.658 991.812 329.082 991.812 328.056C991.812 327.048 991.02 326.454 989.85 326.454ZM989.85 331.458C987.402 331.458 985.638 330.072 985.638 328.056C985.638 326.058 987.402 324.654 989.85 324.654C992.28 324.654 994.044 326.058 994.044 328.056C994.044 330.072 992.28 331.458 989.85 331.458ZM995.142 331.89L995.286 333.618C993.828 333.888 992.37 334.032 990.93 334.14V340.062H988.554V334.266C987.204 334.32 985.908 334.32 984.756 334.32L984.486 332.394C987.564 332.394 991.614 332.376 995.142 331.89ZM996.204 323.97H998.58V340.53H996.204V336.912H992.874V335.112H996.204V323.97ZM1007.52 325.248V327.66C1007.52 330.738 1008.84 333.762 1011.65 334.968L1010.3 336.894C1008.39 336.03 1007.11 334.392 1006.37 332.358C1005.63 334.572 1004.28 336.354 1002.3 337.29L1000.88 335.328C1003.78 334.086 1005.15 330.882 1005.15 327.66V325.248H1007.52ZM1012.46 323.952H1014.83V340.584H1012.46V323.952Z" fill="#F4F4F4"/>
<path d="M581.266 63V112.5" stroke="#393939" stroke-width="2"/>
<path d="M581.266 242V291.5" stroke="#393939" stroke-width="2"/>
<path d="M644.266 176L693.766 176" stroke="#393939" stroke-width="2"/>
<path d="M628.266 220L665.621 254.355" stroke="#393939" stroke-width="2"/>
<path d="M493.266 96L530.621 130.355" stroke="#393939" stroke-width="2"/>
<path d="M530.621 220L493.266 254.355" stroke="#393939" stroke-width="2"/>
<path d="M665.621 96L628.266 130.355" stroke="#393939" stroke-width="2"/>
<path d="M468.266 176L517.766 176" stroke="#393939" stroke-width="2"/>
<circle cx="689.266" cy="75" r="35" fill="#464646"/>
<path d="M679.817 73.565V75.637H685.809V73.565H679.817ZM683.527 79.347H688.553V80.537H677.101V79.347H682.085V76.799H678.389V70.275H679.817V72.403H685.809V70.275H687.237V76.799H683.527V79.347ZM696.308 75.273L695.538 76.365C694.418 75.903 693.634 75.049 693.172 74.027C692.71 75.189 691.884 76.169 690.68 76.701L689.91 75.595C691.604 74.825 692.458 73.215 692.458 71.773V70.163H693.858V71.773C693.858 73.187 694.67 74.615 696.308 75.273ZM692.108 78.885V77.723H700.676V82.091H699.234V78.885H692.108ZM699.304 69.435H700.676V77.093H699.304V73.803H697.974V77.023H696.616V69.645H697.974V72.627H699.304V69.435Z" fill="#EFEFEF"/>
<circle cx="724.266" cy="177" r="35" fill="#464646"/>
<path d="M719.283 176.209L719.409 177.343C717.687 177.623 716.231 177.665 713.613 177.665H712.619V172.009H718.471V173.143H714.061V174.235H718.233V175.341H714.061V176.517C716.343 176.517 717.687 176.461 719.283 176.209ZM715.251 181.711V182.845H722.391V183.965H713.837V180.675H720.543V179.681H713.809V178.561H721.971V181.711H715.251ZM721.971 174.067H723.749V175.257H721.971V177.987H720.529V171.435H721.971V174.067ZM731.308 177.273L730.538 178.365C729.418 177.903 728.634 177.049 728.172 176.027C727.71 177.189 726.884 178.169 725.68 178.701L724.91 177.595C726.604 176.825 727.458 175.215 727.458 173.773V172.163H728.858V173.773C728.858 175.187 729.67 176.615 731.308 177.273ZM727.108 180.885V179.723H735.676V184.091H734.234V180.885H727.108ZM734.304 171.435H735.676V179.093H734.304V175.803H732.974V179.023H731.616V171.645H732.974V174.627H734.304V171.435Z" fill="#EFEFEF"/>
<circle cx="581.266" cy="321" r="35" fill="#464646"/>
<path d="M579.167 320.041V321.203H570.599V316.149H579.013V317.311H572.083V320.041H579.167ZM580.553 322.659V323.849H575.499V328.049H574.057V323.849H569.073V322.659H580.553ZM584.948 317.871V323.849C585.536 323.821 586.152 323.807 586.754 323.779V317.871H584.948ZM588.154 317.871V323.681C588.784 323.639 589.4 323.569 590.002 323.499L590.086 324.563C587.384 325.011 584.402 325.053 582.106 325.053L581.952 323.863C582.442 323.863 582.988 323.863 583.548 323.849V317.871H582.288V316.709H589.414V317.871H588.154ZM590.968 315.435H592.41V328.091H590.968V315.435Z" fill="#EFEFEF"/>
<circle cx="689.266" cy="279" r="35" fill="#464646"/>
<path d="M680.685 282.423V284.775H686.159V282.423H680.685ZM679.271 285.923V281.275H687.573V285.923H679.271ZM683.737 277.985H686.131V276.333H683.737C683.807 276.585 683.849 276.865 683.849 277.159C683.849 277.453 683.807 277.733 683.737 277.985ZM680.559 278.979C681.665 278.979 682.477 278.251 682.477 277.159C682.477 276.067 681.665 275.339 680.559 275.339C679.453 275.339 678.641 276.067 678.641 277.159C678.641 278.251 679.453 278.979 680.559 278.979ZM686.131 273.435H687.573V280.659H686.131V279.147H683.093C682.505 279.791 681.595 280.183 680.559 280.183C678.683 280.183 677.269 278.937 677.269 277.159C677.269 275.381 678.683 274.135 680.559 274.135C681.595 274.135 682.491 274.513 683.079 275.157H686.131V273.435ZM696.308 279.273L695.538 280.365C694.418 279.903 693.634 279.049 693.172 278.027C692.71 279.189 691.884 280.169 690.68 280.701L689.91 279.595C691.604 278.825 692.458 277.215 692.458 275.773V274.163H693.858V275.773C693.858 277.187 694.67 278.615 696.308 279.273ZM692.108 282.885V281.723H700.676V286.091H699.234V282.885H692.108ZM699.304 273.435H700.676V281.093H699.304V277.803H697.974V281.023H696.616V273.645H697.974V276.627H699.304V273.435Z" fill="#EFEFEF"/>
<circle cx="473.266" cy="279" r="35" fill="#464646"/>
<path d="M471.825 277.803L471.265 278.923C469.263 278.587 467.597 277.565 466.785 276.179C465.987 277.565 464.349 278.587 462.347 278.923L461.773 277.803C464.279 277.425 466.057 275.899 466.057 274.261V273.785H467.541V274.261C467.541 275.913 469.319 277.439 471.825 277.803ZM463.985 282.199V284.663H471.251V285.839H462.529V282.199H463.985ZM467.513 280.113H472.553V281.289H461.087V280.113H466.071V278.153H467.513V280.113ZM481.33 279.217L480.574 280.351C479.216 279.861 478.208 278.895 477.676 277.705C477.116 279.077 476.08 280.169 474.624 280.701L473.854 279.553C475.842 278.867 476.92 277.145 476.92 275.325V274.079H478.376V275.437C478.376 277.061 479.454 278.601 481.33 279.217ZM479.776 284.943C481.54 284.943 482.562 284.509 482.562 283.697C482.562 282.913 481.54 282.465 479.776 282.465C478.012 282.465 476.99 282.913 476.99 283.697C476.99 284.509 478.012 284.943 479.776 284.943ZM479.776 281.331C482.394 281.331 483.99 282.213 483.99 283.697C483.99 285.195 482.394 286.077 479.776 286.077C477.172 286.077 475.562 285.195 475.562 283.697C475.562 282.213 477.172 281.331 479.776 281.331ZM483.85 276.557H485.642V277.747H483.85V281.023H482.408V273.421H483.85V276.557Z" fill="#EFEFEF"/>
<circle cx="581.266" cy="35" r="35" fill="#464646"/>
<path d="M576.577 30.765V31.913H569.115V30.765H572.125V29.351H573.567V30.765H576.577ZM571.159 34.699C571.159 35.413 571.831 35.875 572.839 35.875C573.847 35.875 574.533 35.413 574.533 34.699C574.533 33.957 573.847 33.509 572.839 33.509C571.831 33.509 571.159 33.957 571.159 34.699ZM575.905 34.699C575.905 36.057 574.673 36.939 572.839 36.939C571.019 36.939 569.773 36.057 569.773 34.699C569.773 33.327 571.019 32.445 572.839 32.445C574.673 32.445 575.905 33.327 575.905 34.699ZM574.939 40.971C576.675 40.971 577.683 40.593 577.683 39.851C577.683 39.123 576.675 38.745 574.939 38.745C573.203 38.745 572.195 39.123 572.195 39.851C572.195 40.593 573.203 40.971 574.939 40.971ZM574.939 37.639C577.515 37.639 579.111 38.465 579.111 39.851C579.111 41.251 577.515 42.077 574.939 42.077C572.363 42.077 570.767 41.251 570.767 39.851C570.767 38.465 572.363 37.639 574.939 37.639ZM580.721 32.655H578.971V34.181H580.721V35.371H578.971V37.527H577.529V29.435H578.971V31.465H580.721V32.655ZM582.694 30.765H588.686C588.686 34.531 587.174 37.723 582.834 39.823L582.064 38.675C585.382 37.079 586.95 34.853 587.202 31.941H582.694V30.765ZM590.968 29.435H592.41V42.077H590.968V29.435Z" fill="#EFEFEF"/>
<circle cx="473.266" cy="75" r="35" fill="#464646"/>
<path d="M456.729 73.201C456.729 74.307 457.555 75.021 458.675 75.021C459.809 75.021 460.635 74.307 460.635 73.201C460.635 72.095 459.809 71.381 458.675 71.381C457.555 71.381 456.729 72.095 456.729 73.201ZM462.049 73.201C462.049 74.993 460.607 76.239 458.675 76.239C456.757 76.239 455.315 74.993 455.315 73.201C455.315 71.409 456.757 70.163 458.675 70.163C460.607 70.163 462.049 71.409 462.049 73.201ZM456.715 78.647V77.485H465.031V82.091H463.589V78.647H456.715ZM466.781 72.431H465.031V73.957H466.781V75.147H465.031V76.925H463.589V69.435H465.031V71.241H466.781V72.431ZM475.488 75.623L474.76 76.771C473.36 76.281 472.338 75.273 471.778 74.041C471.232 75.427 470.182 76.505 468.698 77.037L467.914 75.917C469.944 75.231 471.022 73.523 471.022 71.675V70.205H472.478V71.689C472.478 73.369 473.57 74.965 475.488 75.623ZM471.372 77.849V80.663H478.414V81.839H469.93V77.849H471.372ZM477.91 73.215H479.702V74.405H477.91V78.745H476.468V69.421H477.91V73.215ZM489.949 76.883V73.131H487.387V71.955H489.949V69.421H491.391V76.883H489.949ZM488.423 75.245L487.653 76.379C486.295 75.889 485.315 74.937 484.769 73.705C484.209 75.105 483.145 76.211 481.619 76.757L480.863 75.595C482.893 74.909 483.999 73.201 483.999 71.353V70.107H485.455V71.283C485.455 73.033 486.505 74.615 488.423 75.245ZM487.177 80.943C488.969 80.943 490.005 80.481 490.005 79.655C490.005 78.829 488.969 78.367 487.177 78.367C485.385 78.367 484.363 78.829 484.363 79.655C484.363 80.481 485.385 80.943 487.177 80.943ZM487.177 77.233C489.823 77.233 491.447 78.129 491.447 79.655C491.447 81.181 489.823 82.077 487.177 82.077C484.545 82.077 482.921 81.181 482.921 79.655C482.921 78.129 484.545 77.233 487.177 77.233Z" fill="#EFEFEF"/>
<circle cx="438.266" cy="177" r="35" fill="#464646"/>
<path d="M427.641 175.201C427.641 176.293 428.453 177.021 429.573 177.021C430.665 177.021 431.477 176.293 431.477 175.201C431.477 174.095 430.665 173.367 429.573 173.367C428.453 173.367 427.641 174.095 427.641 175.201ZM435.131 174.347H432.737C432.807 174.613 432.849 174.893 432.849 175.201C432.849 175.509 432.807 175.789 432.723 176.055H435.131V174.347ZM435.131 177.217H432.079C431.491 177.861 430.595 178.239 429.573 178.239C427.683 178.239 426.269 176.979 426.269 175.201C426.269 173.409 427.683 172.149 429.573 172.149C430.609 172.149 431.491 172.541 432.079 173.171H435.131V171.421H436.573V178.883H435.131V177.217ZM432.359 182.943C434.165 182.943 435.201 182.481 435.201 181.613C435.201 180.773 434.165 180.297 432.359 180.297C430.567 180.297 429.517 180.773 429.517 181.613C429.517 182.481 430.567 182.943 432.359 182.943ZM432.359 179.163C434.991 179.163 436.629 180.073 436.629 181.613C436.629 183.167 434.991 184.077 432.359 184.077C429.727 184.077 428.103 183.167 428.103 181.613C428.103 180.073 429.727 179.163 432.359 179.163ZM440.548 175.173C440.548 176.279 441.374 176.979 442.494 176.979C443.628 176.979 444.454 176.279 444.454 175.173C444.454 174.081 443.628 173.367 442.494 173.367C441.374 173.367 440.548 174.081 440.548 175.173ZM445.868 175.173C445.868 176.951 444.426 178.197 442.494 178.197C440.576 178.197 439.134 176.951 439.134 175.173C439.134 173.395 440.576 172.163 442.494 172.163C444.426 172.163 445.868 173.395 445.868 175.173ZM444.776 182.929C446.54 182.929 447.562 182.481 447.562 181.655C447.562 180.815 446.54 180.367 444.776 180.367C443.012 180.367 441.99 180.815 441.99 181.655C441.99 182.481 443.012 182.929 444.776 182.929ZM444.776 179.219C447.38 179.219 448.99 180.129 448.99 181.655C448.99 183.167 447.38 184.077 444.776 184.077C442.186 184.077 440.562 183.167 440.562 181.655C440.562 180.129 442.186 179.219 444.776 179.219ZM450.6 174.347H448.85V175.887H450.6V177.077H448.85V178.869H447.408V171.421H448.85V173.157H450.6V174.347Z" fill="#EFEFEF"/>
<circle cx="581.266" cy="178" r="70" fill="#8796E9"/>
<path d="M574.327 178.17L573.085 180.024C571.357 179.43 570.169 178.278 569.449 176.82C568.729 178.512 567.433 179.808 565.507 180.474L564.265 178.62C567.037 177.684 568.189 175.47 568.189 173.238V171.816H570.601V173.184C570.601 175.236 571.717 177.306 574.327 178.17ZM569.089 183.084V185.496H575.209V183.084H569.089ZM566.749 187.35V181.212H577.531V187.35H566.749ZM579.655 174.912H577.531V176.442H579.655V178.368H577.531V180.546H575.155V170.97H577.531V172.968H579.655V174.912ZM590.256 177.324V173.598H586.872V177.324H590.256ZM584.496 177.324V173.598H582.39V171.708H594.738V173.598H592.614V177.324H594.612V179.214H582.498V177.324H584.496ZM596.034 180.6V182.508H589.716V187.548H587.34V182.508H581.022V180.6H596.034Z" fill="#EFEFEF"/>
<circle cx="819.266" cy="150" r="35" fill="#936DAA"/>
<path d="M820.838 149.993L820.138 151.113C818.682 150.665 817.604 149.727 817.03 148.537C816.456 149.825 815.378 150.847 813.866 151.337L813.138 150.203C815.126 149.587 816.274 148.033 816.274 146.409V146.353H813.53V145.191H820.446V146.353H817.744V146.409C817.744 147.949 818.892 149.405 820.838 149.993ZM822.028 155.761V154.361H816.624V155.761H822.028ZM822.028 153.227V151.869H823.456V156.923H815.196V151.869H816.624V153.227H822.028ZM822.014 144.421H823.456V151.295H822.014V144.421Z" fill="#EFEFEF"/>
<circle cx="784.266" cy="258" r="35" fill="#936DAA"/>
<path d="M772.361 262.137V260.975H781.125V265.077H779.683V262.137H772.361ZM775.245 257.447V258.777H778.353V257.447C777.891 257.517 777.373 257.559 776.813 257.559C776.253 257.559 775.721 257.517 775.245 257.447ZM776.813 253.807C774.937 253.807 773.789 254.283 773.789 255.123C773.789 255.963 774.937 256.439 776.813 256.439C778.689 256.439 779.823 255.963 779.823 255.123C779.823 254.283 778.689 253.807 776.813 253.807ZM779.795 258.777H782.525V259.939H771.087V258.777H773.803V257.041C772.851 256.621 772.305 255.963 772.305 255.123C772.305 253.597 774.055 252.687 776.813 252.687C779.571 252.687 781.321 253.597 781.321 255.123C781.321 255.977 780.761 256.635 779.795 257.055V258.777ZM794.396 252.435V258.917H792.94V252.435H794.396ZM791.666 257.503L790.966 258.637C789.51 258.161 788.446 257.195 787.872 255.949C787.298 257.307 786.22 258.357 784.694 258.875L783.98 257.727C785.982 257.069 787.116 255.431 787.116 253.723V252.771H788.586V253.723C788.586 255.361 789.72 256.901 791.666 257.503ZM787.55 263.831H794.774V264.965H786.136V261.675H792.968V260.639H786.108V259.519H794.396V262.725H787.55V263.831Z" fill="#EFEFEF"/>
<circle cx="346.266" cy="150" r="35" fill="#936DAA"/>
<path d="M337.623 150.973L336.629 150.133C338.113 149.069 338.813 147.949 338.981 146.255H337.273V145.093H340.353C340.353 147.655 339.653 149.447 337.623 150.973ZM333.423 145.093H336.783C336.783 147.613 335.957 149.153 333.983 150.539L333.045 149.643C334.417 148.733 335.187 147.809 335.397 146.255H333.423V145.093ZM336.195 154.655V155.789H343.447V156.923H334.781V153.605H341.557V152.541H334.753V151.421H342.971V154.655H336.195ZM342.971 147.053H344.763V148.243H342.971V150.861H341.529V144.435H342.971V147.053ZM348.78 153.437V155.719H354.59V153.437H348.78ZM347.366 156.881V152.289H356.004V156.881H347.366ZM355.654 149.545H357.432V150.707H345.966V149.545H349.242C349.648 148.047 349.746 146.927 349.774 146.115H347.044V144.953H351.174V145.499C351.174 146.297 351.174 147.669 350.67 149.545H354.212C354.562 148.047 354.632 146.941 354.646 146.115H351.958V144.953H356.06V145.611C356.06 146.479 356.06 147.767 355.654 149.545Z" fill="#EFEFEF"/>
<circle cx="382.266" cy="251" r="35" fill="#936DAA"/>
<path d="M373.623 251.973L372.629 251.133C374.113 250.069 374.813 248.949 374.981 247.255H373.273V246.093H376.353C376.353 248.655 375.653 250.447 373.623 251.973ZM369.423 246.093H372.783C372.783 248.613 371.957 250.153 369.983 251.539L369.045 250.643C370.417 249.733 371.187 248.809 371.397 247.255H369.423V246.093ZM372.195 255.655V256.789H379.447V257.923H370.781V254.605H377.557V253.541H370.753V252.421H378.971V255.655H372.195ZM378.971 248.053H380.763V249.243H378.971V251.861H377.529V245.435H378.971V248.053ZM384.78 254.437V256.719H390.59V254.437H384.78ZM383.366 257.881V253.289H392.004V257.881H383.366ZM391.654 250.545H393.432V251.707H381.966V250.545H385.242C385.648 249.047 385.746 247.927 385.774 247.115H383.044V245.953H387.174V246.499C387.174 247.297 387.174 248.669 386.67 250.545H390.212C390.562 249.047 390.632 247.941 390.646 247.115H387.958V245.953H392.06V246.611C392.06 247.479 392.06 248.767 391.654 250.545Z" fill="#EFEFEF"/>
<circle cx="419.266" cy="366" r="35" fill="#936DAA"/>
<path d="M410.623 366.973L409.629 366.133C411.113 365.069 411.813 363.949 411.981 362.255H410.273V361.093H413.353C413.353 363.655 412.653 365.447 410.623 366.973ZM406.423 361.093H409.783C409.783 363.613 408.957 365.153 406.983 366.539L406.045 365.643C407.417 364.733 408.187 363.809 408.397 362.255H406.423V361.093ZM409.195 370.655V371.789H416.447V372.923H407.781V369.605H414.557V368.541H407.753V367.421H415.971V370.655H409.195ZM415.971 363.053H417.763V364.243H415.971V366.861H414.529V360.435H415.971V363.053ZM421.78 369.437V371.719H427.59V369.437H421.78ZM420.366 372.881V368.289H429.004V372.881H420.366ZM428.654 365.545H430.432V366.707H418.966V365.545H422.242C422.648 364.047 422.746 362.927 422.774 362.115H420.044V360.953H424.174V361.499C424.174 362.297 424.174 363.669 423.67 365.545H427.212C427.562 364.047 427.632 362.941 427.646 362.115H424.958V360.953H429.06V361.611C429.06 362.479 429.06 363.767 428.654 365.545Z" fill="#EFEFEF"/>
<circle cx="746.266" cy="374" r="35" fill="#936DAA"/>
<path d="M737.623 374.973L736.629 374.133C738.113 373.069 738.813 371.949 738.981 370.255H737.273V369.093H740.353C740.353 371.655 739.653 373.447 737.623 374.973ZM733.423 369.093H736.783C736.783 371.613 735.957 373.153 733.983 374.539L733.045 373.643C734.417 372.733 735.187 371.809 735.397 370.255H733.423V369.093ZM736.195 378.655V379.789H743.447V380.923H734.781V377.605H741.557V376.541H734.753V375.421H742.971V378.655H736.195ZM742.971 371.053H744.763V372.243H742.971V374.861H741.529V368.435H742.971V371.053ZM748.78 377.437V379.719H754.59V377.437H748.78ZM747.366 380.881V376.289H756.004V380.881H747.366ZM755.654 373.545H757.432V374.707H745.966V373.545H749.242C749.648 372.047 749.746 370.927 749.774 370.115H747.044V368.953H751.174V369.499C751.174 370.297 751.174 371.669 750.67 373.545H754.212C754.562 372.047 754.632 370.941 754.646 370.115H751.958V368.953H756.06V369.611C756.06 370.479 756.06 371.767 755.654 373.545Z" fill="#EFEFEF"/>
</svg>
