<svg width="928" height="356" viewBox="0 0 928 356" fill="none" xmlns="http://www.w3.org/2000/svg">
<path d="M178.266 65V114.5" stroke="#393939" stroke-width="2"/>
<path d="M178.266 244V293.5" stroke="#393939" stroke-width="2"/>
<path d="M241.266 178L290.766 178" stroke="#393939" stroke-width="2"/>
<path d="M225.266 222L262.621 256.355" stroke="#393939" stroke-width="2"/>
<path d="M90.2656 98L127.621 132.355" stroke="#393939" stroke-width="2"/>
<path d="M127.621 222L90.2658 256.355" stroke="#393939" stroke-width="2"/>
<path d="M262.621 98L225.266 132.355" stroke="#393939" stroke-width="2"/>
<path d="M65.2656 178L114.766 178" stroke="#393939" stroke-width="2"/>
<circle cx="178.266" cy="35" r="35" fill="#464646"/>
<path d="M162.625 33.565C162.625 34.937 163.983 35.805 165.873 35.805C167.749 35.805 169.107 34.937 169.107 33.565C169.107 32.193 167.749 31.325 165.873 31.325C163.983 31.325 162.625 32.193 162.625 33.565ZM166.587 39.347H171.613V40.523H160.161V39.347H165.145V36.925C162.835 36.715 161.225 35.441 161.225 33.565C161.225 31.507 163.185 30.177 165.873 30.177C168.547 30.177 170.521 31.507 170.521 33.565C170.521 35.441 168.897 36.729 166.587 36.939V39.347ZM173.04 39.305H184.492V40.495H173.04V39.305ZM174.328 30.303H175.756V32.515H181.748V30.303H183.176V36.967H174.328V30.303ZM175.756 33.663V35.805H181.748V33.663H175.756ZM189.755 31.997V32.907C189.755 35.063 190.567 37.247 192.331 38.269L191.491 39.319C190.301 38.619 189.517 37.373 189.069 35.903C188.621 37.499 187.809 38.857 186.591 39.627L185.723 38.563C187.515 37.443 188.355 35.161 188.355 32.907V31.997H186.129V30.807H191.841V31.997H189.755ZM192.779 33.873V29.673H194.137V41.461H192.779V35.049H190.917V33.873H192.779ZM195.327 29.421H196.699V42.063H195.327V29.421Z" fill="#EFEFEF"/>
<circle cx="178.266" cy="178" r="70" fill="#ED6171"/>
<path d="M149.306 172.14V173.922H135.824V172.14H141.404V170.844H143.78V172.14H149.306ZM139.172 184.29V185.604H145.958V184.29H139.172ZM136.85 187.35V182.544H148.298V187.35H136.85ZM139.586 176.694C139.586 177.234 140.54 177.468 142.592 177.468C144.662 177.468 145.598 177.234 145.598 176.694C145.598 176.154 144.662 175.938 142.592 175.938C140.54 175.938 139.586 176.154 139.586 176.694ZM143.78 179.844H150.098V181.68H135.086V179.844H141.404V179.016C138.614 178.854 137.048 178.08 137.048 176.694C137.048 175.128 139.046 174.336 142.592 174.336C146.156 174.336 148.154 175.128 148.154 176.694C148.154 178.08 146.588 178.854 143.78 179.016V179.844ZM169.511 170.988V182.886H167.117V170.988H169.511ZM158.297 176.244C158.297 177.576 159.269 178.386 160.493 178.386C161.735 178.386 162.671 177.576 162.671 176.244C162.671 174.876 161.735 174.084 160.493 174.084C159.269 174.084 158.297 174.876 158.297 176.244ZM164.993 176.244C164.993 178.656 163.031 180.438 160.493 180.438C157.955 180.438 155.975 178.656 155.975 176.244C155.975 173.796 157.955 172.032 160.493 172.032C163.031 172.032 164.993 173.796 164.993 176.244ZM160.853 185.37H169.925V187.26H158.477V181.716H160.853V185.37ZM175.035 179.088V181.986C176.763 181.968 178.059 181.896 179.553 181.662L179.751 183.552C177.879 183.858 176.295 183.894 173.919 183.894H172.785V172.788H178.923V174.678H175.035V177.252H178.293V179.088H175.035ZM180.849 177V171.276H183.063V186.81H180.849V178.926H179.049V177H180.849ZM184.287 170.952H186.537V187.53H184.287V170.952ZM192.17 178.782V181.77C194.69 181.752 196.778 181.626 199.118 181.23L199.37 183.156C196.67 183.624 194.24 183.732 191.234 183.732H189.74V176.91H195.122V174.264H189.722V172.374H197.552V178.782H192.17ZM200.27 170.952H202.646V187.584H200.27V170.952ZM209.953 181.806C211.177 181.806 211.987 180.492 211.987 178.026C211.987 175.578 211.177 174.264 209.953 174.264C208.747 174.264 207.937 175.578 207.937 178.026C207.937 180.492 208.747 181.806 209.953 181.806ZM216.955 170.952H219.331V187.584H216.955V178.854H214.201C213.949 182.022 212.257 183.966 209.953 183.966C207.487 183.966 205.669 181.68 205.669 178.026C205.669 174.39 207.487 172.122 209.953 172.122C212.185 172.122 213.859 173.94 214.183 176.928H216.955V170.952Z" fill="#EFEFEF"/>
<circle cx="178.266" cy="321" r="35" fill="#464646"/>
<path d="M166.815 316.765H172.807C172.807 320.531 171.295 323.723 166.955 325.823L166.185 324.675C169.503 323.079 171.071 320.853 171.323 317.941H166.815V316.765ZM175.089 315.435H176.531V328.077H175.089V315.435ZM179.47 316.401H185.448C185.448 319.747 183.222 322.127 179.54 323.247L178.938 322.099C181.836 321.217 183.628 319.579 183.88 317.577H179.47V316.401ZM182.284 323.667V326.663H189.34V327.839H180.828V323.667H182.284ZM188.836 319.131H190.642V320.321H188.836V324.591H187.394V315.435H188.836V319.131Z" fill="#EFEFEF"/>
<circle cx="321.266" cy="177" r="35" fill="#464646"/>
<path d="M318.145 182.761V181.361H312.783V182.761H318.145ZM318.145 180.241V178.813H319.573V183.923H311.355V178.813H312.783V180.241H318.145ZM312.573 176.727C313.665 176.727 314.477 176.013 314.477 174.949C314.477 173.871 313.665 173.185 312.573 173.185C311.453 173.185 310.655 173.871 310.655 174.949C310.655 176.013 311.453 176.727 312.573 176.727ZM318.131 171.435H319.573V178.211H318.131V175.523H315.793C315.541 176.951 314.253 177.917 312.573 177.917C310.669 177.917 309.269 176.699 309.269 174.949C309.269 173.213 310.669 171.995 312.573 171.995C314.239 171.995 315.513 172.933 315.793 174.347H318.131V171.435ZM325.774 174.851V175.299C325.774 177.273 326.628 179.289 328.364 180.227L327.566 181.305C326.376 180.661 325.564 179.499 325.102 178.127C324.654 179.611 323.856 180.885 322.652 181.585L321.826 180.493C323.562 179.471 324.402 177.315 324.402 175.299V174.851H322.218V173.661H324.402V171.869H325.774V173.661H327.944V174.851H325.774ZM328.84 176.335V171.687H330.198V183.461H328.84V177.511H327.132V176.335H328.84ZM331.388 171.435H332.76V184.077H331.388V171.435Z" fill="#EFEFEF"/>
<circle cx="35.2656" cy="177" r="35" fill="#464646"/>
<path d="M25.0467 180.759V179.597H33.5727V184.091H32.1307V180.759H25.0467ZM29.4987 175.971H32.1307V174.557H29.4987V175.971ZM28.0847 177.161V175.243H25.1027V177.161H28.0847ZM32.1307 171.435H33.5727V178.967H32.1307V177.133H29.4987V178.323H23.6747V172.177H25.1027V174.123H28.0847V172.177H29.4987V173.381H32.1307V171.435ZM40.6416 173.885V175.089C40.6416 177.189 41.9436 179.373 43.9176 180.213L43.1196 181.347C41.6496 180.703 40.5156 179.331 39.9276 177.693C39.3676 179.457 38.2336 180.955 36.7496 181.669L35.9236 180.521C37.8836 179.611 39.1856 177.259 39.1856 175.089V173.885H36.3716V172.695H43.4556V173.885H40.6416ZM44.9256 171.435H46.3816V184.077H44.9256V171.435Z" fill="#EFEFEF"/>
<circle cx="286.266" cy="279" r="35" fill="#464646"/>
<path d="M284.797 273.435V280.113H283.425V273.435H284.797ZM280.947 280.015V276.795H279.225V275.619H280.947V273.659H282.305V280.015H280.947ZM280.289 278.601L279.547 279.707C278.427 279.231 277.685 278.391 277.251 277.341C276.803 278.531 276.005 279.511 274.829 280.071L274.031 278.979C275.711 278.223 276.551 276.571 276.551 275.017V273.939H277.951V275.059C277.951 276.543 278.721 277.971 280.289 278.601ZM277.811 284.831H285.259V285.965H276.383V282.703H283.383V281.751H276.355V280.631H284.797V283.767H277.811V284.831ZM294.134 279.917V275.787H291.222V279.917H294.134ZM289.78 279.917V275.787H287.918V274.625H297.424V275.787H295.562V279.917H297.396V281.093H287.96V279.917H289.78ZM286.966 283.333H298.446V284.523H286.966V283.333Z" fill="#EFEFEF"/>
<circle cx="70.2656" cy="75" r="35" fill="#464646"/>
<path d="M62.7627 70.485V72.557C62.7627 74.881 64.0507 77.205 66.0387 78.101L65.1987 79.249C63.7427 78.563 62.6367 77.163 62.0627 75.455C61.4887 77.289 60.3687 78.787 58.8427 79.529L57.9887 78.325C60.0047 77.415 61.3207 74.993 61.3207 72.557V70.485H62.7627ZM67.0467 69.421H68.5027V82.105H67.0467V69.421ZM80.6396 74.461L79.2256 74.307C79.5476 73.061 79.5616 72.151 79.5616 71.199H72.3096V70.037H80.9896V71.101C80.9896 72.109 80.9896 73.159 80.6396 74.461ZM76.6496 80.971C78.5116 80.971 79.6316 80.509 79.6316 79.711C79.6316 78.927 78.5116 78.465 76.6496 78.465C74.7736 78.465 73.6256 78.927 73.6256 79.711C73.6256 80.509 74.7736 80.971 76.6496 80.971ZM76.6496 77.359C79.3376 77.359 81.0736 78.255 81.0736 79.711C81.0736 81.181 79.3376 82.077 76.6496 82.077C73.9196 82.077 72.1976 81.181 72.1976 79.711C72.1976 78.255 73.9196 77.359 76.6496 77.359ZM76.9296 75.217H82.3896V76.379H70.9936V75.217H75.4736V72.893H76.9296V75.217Z" fill="#EFEFEF"/>
<circle cx="286.266" cy="75" r="35" fill="#464646"/>
<path d="M274.717 70.765H280.583C280.583 74.433 279.015 77.681 274.885 79.767L274.087 78.661C277.181 77.079 278.847 74.853 279.141 71.941H274.717V70.765ZM285.805 74.419V75.623H283.887V82.063H282.445V69.421H283.887V74.419H285.805ZM288.926 78.661V77.513H297.452V82.049H296.01V78.661H288.926ZM296.01 69.421H297.452V76.967H296.01V75.441H292.944V74.265H296.01V72.753H293.14C292.3 74.727 290.396 76.141 287.694 76.869L287.134 75.721C290.074 74.937 291.824 73.369 292.09 71.423H287.806V70.261H293.63C293.63 70.723 293.588 71.185 293.49 71.591H296.01V69.421Z" fill="#EFEFEF"/>
<circle cx="70.2656" cy="279" r="35" fill="#464646"/>
<path d="M63.1127 281.933V278.839H59.9767V281.933H63.1127ZM63.1127 277.691V274.471H64.5407V283.095H58.5347V274.471H59.9767V277.691H63.1127ZM69.8607 278.293V279.497H67.8867V286.091H66.4447V273.435H67.8867V278.293H69.8607ZM78.2176 278.447L78.3576 279.609C76.7196 279.959 75.2356 280.043 72.5196 280.043H71.4976V274.317H77.1256V275.493H72.9396V278.853C75.3336 278.839 76.6916 278.769 78.2176 278.447ZM72.5336 282.689V281.513H80.8496V286.105H79.4076V282.689H72.5336ZM82.6416 276.515V277.705H80.8496V280.855H79.4076V273.435H80.8496V276.515H82.6416Z" fill="#EFEFEF"/>
<path d="M749.266 63V112.5" stroke="#393939" stroke-width="2"/>
<path d="M749.266 242V291.5" stroke="#393939" stroke-width="2"/>
<path d="M812.266 176L861.766 176" stroke="#393939" stroke-width="2"/>
<path d="M796.266 220L833.621 254.355" stroke="#393939" stroke-width="2"/>
<path d="M661.266 96L698.621 130.355" stroke="#393939" stroke-width="2"/>
<path d="M698.621 220L661.266 254.355" stroke="#393939" stroke-width="2"/>
<path d="M833.621 96L796.266 130.355" stroke="#393939" stroke-width="2"/>
<path d="M636.266 176L685.766 176" stroke="#393939" stroke-width="2"/>
<circle cx="857.266" cy="75" r="35" fill="#464646"/>
<path d="M847.817 73.565V75.637H853.809V73.565H847.817ZM851.527 79.347H856.553V80.537H845.101V79.347H850.085V76.799H846.389V70.275H847.817V72.403H853.809V70.275H855.237V76.799H851.527V79.347ZM864.308 75.273L863.538 76.365C862.418 75.903 861.634 75.049 861.172 74.027C860.71 75.189 859.884 76.169 858.68 76.701L857.91 75.595C859.604 74.825 860.458 73.215 860.458 71.773V70.163H861.858V71.773C861.858 73.187 862.67 74.615 864.308 75.273ZM860.108 78.885V77.723H868.676V82.091H867.234V78.885H860.108ZM867.304 69.435H868.676V77.093H867.304V73.803H865.974V77.023H864.616V69.645H865.974V72.627H867.304V69.435Z" fill="#EFEFEF"/>
<circle cx="892.266" cy="177" r="35" fill="#464646"/>
<path d="M887.283 176.209L887.409 177.343C885.687 177.623 884.231 177.665 881.613 177.665H880.619V172.009H886.471V173.143H882.061V174.235H886.233V175.341H882.061V176.517C884.343 176.517 885.687 176.461 887.283 176.209ZM883.251 181.711V182.845H890.391V183.965H881.837V180.675H888.543V179.681H881.809V178.561H889.971V181.711H883.251ZM889.971 174.067H891.749V175.257H889.971V177.987H888.529V171.435H889.971V174.067ZM899.308 177.273L898.538 178.365C897.418 177.903 896.634 177.049 896.172 176.027C895.71 177.189 894.884 178.169 893.68 178.701L892.91 177.595C894.604 176.825 895.458 175.215 895.458 173.773V172.163H896.858V173.773C896.858 175.187 897.67 176.615 899.308 177.273ZM895.108 180.885V179.723H903.676V184.091H902.234V180.885H895.108ZM902.304 171.435H903.676V179.093H902.304V175.803H900.974V179.023H899.616V171.645H900.974V174.627H902.304V171.435Z" fill="#EFEFEF"/>
<circle cx="749.266" cy="321" r="35" fill="#464646"/>
<path d="M747.167 320.041V321.203H738.599V316.149H747.013V317.311H740.083V320.041H747.167ZM748.553 322.659V323.849H743.499V328.049H742.057V323.849H737.073V322.659H748.553ZM752.948 317.871V323.849C753.536 323.821 754.152 323.807 754.754 323.779V317.871H752.948ZM756.154 317.871V323.681C756.784 323.639 757.4 323.569 758.002 323.499L758.086 324.563C755.384 325.011 752.402 325.053 750.106 325.053L749.952 323.863C750.442 323.863 750.988 323.863 751.548 323.849V317.871H750.288V316.709H757.414V317.871H756.154ZM758.968 315.435H760.41V328.091H758.968V315.435Z" fill="#EFEFEF"/>
<circle cx="857.266" cy="279" r="35" fill="#464646"/>
<path d="M848.685 282.423V284.775H854.159V282.423H848.685ZM847.271 285.923V281.275H855.573V285.923H847.271ZM851.737 277.985H854.131V276.333H851.737C851.807 276.585 851.849 276.865 851.849 277.159C851.849 277.453 851.807 277.733 851.737 277.985ZM848.559 278.979C849.665 278.979 850.477 278.251 850.477 277.159C850.477 276.067 849.665 275.339 848.559 275.339C847.453 275.339 846.641 276.067 846.641 277.159C846.641 278.251 847.453 278.979 848.559 278.979ZM854.131 273.435H855.573V280.659H854.131V279.147H851.093C850.505 279.791 849.595 280.183 848.559 280.183C846.683 280.183 845.269 278.937 845.269 277.159C845.269 275.381 846.683 274.135 848.559 274.135C849.595 274.135 850.491 274.513 851.079 275.157H854.131V273.435ZM864.308 279.273L863.538 280.365C862.418 279.903 861.634 279.049 861.172 278.027C860.71 279.189 859.884 280.169 858.68 280.701L857.91 279.595C859.604 278.825 860.458 277.215 860.458 275.773V274.163H861.858V275.773C861.858 277.187 862.67 278.615 864.308 279.273ZM860.108 282.885V281.723H868.676V286.091H867.234V282.885H860.108ZM867.304 273.435H868.676V281.093H867.304V277.803H865.974V281.023H864.616V273.645H865.974V276.627H867.304V273.435Z" fill="#EFEFEF"/>
<circle cx="641.266" cy="279" r="35" fill="#464646"/>
<path d="M639.825 277.803L639.265 278.923C637.263 278.587 635.597 277.565 634.785 276.179C633.987 277.565 632.349 278.587 630.347 278.923L629.773 277.803C632.279 277.425 634.057 275.899 634.057 274.261V273.785H635.541V274.261C635.541 275.913 637.319 277.439 639.825 277.803ZM631.985 282.199V284.663H639.251V285.839H630.529V282.199H631.985ZM635.513 280.113H640.553V281.289H629.087V280.113H634.071V278.153H635.513V280.113ZM649.33 279.217L648.574 280.351C647.216 279.861 646.208 278.895 645.676 277.705C645.116 279.077 644.08 280.169 642.624 280.701L641.854 279.553C643.842 278.867 644.92 277.145 644.92 275.325V274.079H646.376V275.437C646.376 277.061 647.454 278.601 649.33 279.217ZM647.776 284.943C649.54 284.943 650.562 284.509 650.562 283.697C650.562 282.913 649.54 282.465 647.776 282.465C646.012 282.465 644.99 282.913 644.99 283.697C644.99 284.509 646.012 284.943 647.776 284.943ZM647.776 281.331C650.394 281.331 651.99 282.213 651.99 283.697C651.99 285.195 650.394 286.077 647.776 286.077C645.172 286.077 643.562 285.195 643.562 283.697C643.562 282.213 645.172 281.331 647.776 281.331ZM651.85 276.557H653.642V277.747H651.85V281.023H650.408V273.421H651.85V276.557Z" fill="#EFEFEF"/>
<circle cx="749.266" cy="35" r="35" fill="#464646"/>
<path d="M744.577 30.765V31.913H737.115V30.765H740.125V29.351H741.567V30.765H744.577ZM739.159 34.699C739.159 35.413 739.831 35.875 740.839 35.875C741.847 35.875 742.533 35.413 742.533 34.699C742.533 33.957 741.847 33.509 740.839 33.509C739.831 33.509 739.159 33.957 739.159 34.699ZM743.905 34.699C743.905 36.057 742.673 36.939 740.839 36.939C739.019 36.939 737.773 36.057 737.773 34.699C737.773 33.327 739.019 32.445 740.839 32.445C742.673 32.445 743.905 33.327 743.905 34.699ZM742.939 40.971C744.675 40.971 745.683 40.593 745.683 39.851C745.683 39.123 744.675 38.745 742.939 38.745C741.203 38.745 740.195 39.123 740.195 39.851C740.195 40.593 741.203 40.971 742.939 40.971ZM742.939 37.639C745.515 37.639 747.111 38.465 747.111 39.851C747.111 41.251 745.515 42.077 742.939 42.077C740.363 42.077 738.767 41.251 738.767 39.851C738.767 38.465 740.363 37.639 742.939 37.639ZM748.721 32.655H746.971V34.181H748.721V35.371H746.971V37.527H745.529V29.435H746.971V31.465H748.721V32.655ZM750.694 30.765H756.686C756.686 34.531 755.174 37.723 750.834 39.823L750.064 38.675C753.382 37.079 754.95 34.853 755.202 31.941H750.694V30.765ZM758.968 29.435H760.41V42.077H758.968V29.435Z" fill="#EFEFEF"/>
<circle cx="641.266" cy="75" r="35" fill="#464646"/>
<path d="M624.729 73.201C624.729 74.307 625.555 75.021 626.675 75.021C627.809 75.021 628.635 74.307 628.635 73.201C628.635 72.095 627.809 71.381 626.675 71.381C625.555 71.381 624.729 72.095 624.729 73.201ZM630.049 73.201C630.049 74.993 628.607 76.239 626.675 76.239C624.757 76.239 623.315 74.993 623.315 73.201C623.315 71.409 624.757 70.163 626.675 70.163C628.607 70.163 630.049 71.409 630.049 73.201ZM624.715 78.647V77.485H633.031V82.091H631.589V78.647H624.715ZM634.781 72.431H633.031V73.957H634.781V75.147H633.031V76.925H631.589V69.435H633.031V71.241H634.781V72.431ZM643.488 75.623L642.76 76.771C641.36 76.281 640.338 75.273 639.778 74.041C639.232 75.427 638.182 76.505 636.698 77.037L635.914 75.917C637.944 75.231 639.022 73.523 639.022 71.675V70.205H640.478V71.689C640.478 73.369 641.57 74.965 643.488 75.623ZM639.372 77.849V80.663H646.414V81.839H637.93V77.849H639.372ZM645.91 73.215H647.702V74.405H645.91V78.745H644.468V69.421H645.91V73.215ZM657.949 76.883V73.131H655.387V71.955H657.949V69.421H659.391V76.883H657.949ZM656.423 75.245L655.653 76.379C654.295 75.889 653.315 74.937 652.769 73.705C652.209 75.105 651.145 76.211 649.619 76.757L648.863 75.595C650.893 74.909 651.999 73.201 651.999 71.353V70.107H653.455V71.283C653.455 73.033 654.505 74.615 656.423 75.245ZM655.177 80.943C656.969 80.943 658.005 80.481 658.005 79.655C658.005 78.829 656.969 78.367 655.177 78.367C653.385 78.367 652.363 78.829 652.363 79.655C652.363 80.481 653.385 80.943 655.177 80.943ZM655.177 77.233C657.823 77.233 659.447 78.129 659.447 79.655C659.447 81.181 657.823 82.077 655.177 82.077C652.545 82.077 650.921 81.181 650.921 79.655C650.921 78.129 652.545 77.233 655.177 77.233Z" fill="#EFEFEF"/>
<circle cx="606.266" cy="177" r="35" fill="#464646"/>
<path d="M595.641 175.201C595.641 176.293 596.453 177.021 597.573 177.021C598.665 177.021 599.477 176.293 599.477 175.201C599.477 174.095 598.665 173.367 597.573 173.367C596.453 173.367 595.641 174.095 595.641 175.201ZM603.131 174.347H600.737C600.807 174.613 600.849 174.893 600.849 175.201C600.849 175.509 600.807 175.789 600.723 176.055H603.131V174.347ZM603.131 177.217H600.079C599.491 177.861 598.595 178.239 597.573 178.239C595.683 178.239 594.269 176.979 594.269 175.201C594.269 173.409 595.683 172.149 597.573 172.149C598.609 172.149 599.491 172.541 600.079 173.171H603.131V171.421H604.573V178.883H603.131V177.217ZM600.359 182.943C602.165 182.943 603.201 182.481 603.201 181.613C603.201 180.773 602.165 180.297 600.359 180.297C598.567 180.297 597.517 180.773 597.517 181.613C597.517 182.481 598.567 182.943 600.359 182.943ZM600.359 179.163C602.991 179.163 604.629 180.073 604.629 181.613C604.629 183.167 602.991 184.077 600.359 184.077C597.727 184.077 596.103 183.167 596.103 181.613C596.103 180.073 597.727 179.163 600.359 179.163ZM608.548 175.173C608.548 176.279 609.374 176.979 610.494 176.979C611.628 176.979 612.454 176.279 612.454 175.173C612.454 174.081 611.628 173.367 610.494 173.367C609.374 173.367 608.548 174.081 608.548 175.173ZM613.868 175.173C613.868 176.951 612.426 178.197 610.494 178.197C608.576 178.197 607.134 176.951 607.134 175.173C607.134 173.395 608.576 172.163 610.494 172.163C612.426 172.163 613.868 173.395 613.868 175.173ZM612.776 182.929C614.54 182.929 615.562 182.481 615.562 181.655C615.562 180.815 614.54 180.367 612.776 180.367C611.012 180.367 609.99 180.815 609.99 181.655C609.99 182.481 611.012 182.929 612.776 182.929ZM612.776 179.219C615.38 179.219 616.99 180.129 616.99 181.655C616.99 183.167 615.38 184.077 612.776 184.077C610.186 184.077 608.562 183.167 608.562 181.655C608.562 180.129 610.186 179.219 612.776 179.219ZM618.6 174.347H616.85V175.887H618.6V177.077H616.85V178.869H615.408V171.421H616.85V173.157H618.6V174.347Z" fill="#EFEFEF"/>
<circle cx="749.266" cy="178" r="70" fill="#8796E9"/>
<path d="M742.327 178.17L741.085 180.024C739.357 179.43 738.169 178.278 737.449 176.82C736.729 178.512 735.433 179.808 733.507 180.474L732.265 178.62C735.037 177.684 736.189 175.47 736.189 173.238V171.816H738.601V173.184C738.601 175.236 739.717 177.306 742.327 178.17ZM737.089 183.084V185.496H743.209V183.084H737.089ZM734.749 187.35V181.212H745.531V187.35H734.749ZM747.655 174.912H745.531V176.442H747.655V178.368H745.531V180.546H743.155V170.97H745.531V172.968H747.655V174.912ZM758.256 177.324V173.598H754.872V177.324H758.256ZM752.496 177.324V173.598H750.39V171.708H762.738V173.598H760.614V177.324H762.612V179.214H750.498V177.324H752.496ZM764.034 180.6V182.508H757.716V187.548H755.34V182.508H749.022V180.6H764.034Z" fill="#EFEFEF"/>
<circle cx="405.266" cy="279" r="35" fill="#936DAA"/>
<path d="M406.838 278.993L406.138 280.113C404.682 279.665 403.604 278.727 403.03 277.537C402.456 278.825 401.378 279.847 399.866 280.337L399.138 279.203C401.126 278.587 402.274 277.033 402.274 275.409V275.353H399.53V274.191H406.446V275.353H403.744V275.409C403.744 276.949 404.892 278.405 406.838 278.993ZM408.028 284.761V283.361H402.624V284.761H408.028ZM408.028 282.227V280.869H409.456V285.923H401.196V280.869H402.624V282.227H408.028ZM408.014 273.421H409.456V280.295H408.014V273.421Z" fill="#EFEFEF"/>
<circle cx="522.266" cy="279" r="35" fill="#936DAA"/>
<path d="M523.838 278.993L523.138 280.113C521.682 279.665 520.604 278.727 520.03 277.537C519.456 278.825 518.378 279.847 516.866 280.337L516.138 279.203C518.126 278.587 519.274 277.033 519.274 275.409V275.353H516.53V274.191H523.446V275.353H520.744V275.409C520.744 276.949 521.892 278.405 523.838 278.993ZM525.028 284.761V283.361H519.624V284.761H525.028ZM525.028 282.227V280.869H526.456V285.923H518.196V280.869H519.624V282.227H525.028ZM525.014 273.421H526.456V280.295H525.014V273.421Z" fill="#EFEFEF"/>
<circle cx="522.266" cy="75" r="35" fill="#936DAA"/>
<path d="M510.361 79.137V77.975H519.125V82.077H517.683V79.137H510.361ZM513.245 74.447V75.777H516.353V74.447C515.891 74.517 515.373 74.559 514.813 74.559C514.253 74.559 513.721 74.517 513.245 74.447ZM514.813 70.807C512.937 70.807 511.789 71.283 511.789 72.123C511.789 72.963 512.937 73.439 514.813 73.439C516.689 73.439 517.823 72.963 517.823 72.123C517.823 71.283 516.689 70.807 514.813 70.807ZM517.795 75.777H520.525V76.939H509.087V75.777H511.803V74.041C510.851 73.621 510.305 72.963 510.305 72.123C510.305 70.597 512.055 69.687 514.813 69.687C517.571 69.687 519.321 70.597 519.321 72.123C519.321 72.977 518.761 73.635 517.795 74.055V75.777ZM532.396 69.435V75.917H530.94V69.435H532.396ZM529.666 74.503L528.966 75.637C527.51 75.161 526.446 74.195 525.872 72.949C525.298 74.307 524.22 75.357 522.694 75.875L521.98 74.727C523.982 74.069 525.116 72.431 525.116 70.723V69.771H526.586V70.723C526.586 72.361 527.72 73.901 529.666 74.503ZM525.55 80.831H532.774V81.965H524.136V78.675H530.968V77.639H524.108V76.519H532.396V79.725H525.55V80.831Z" fill="#EFEFEF"/>
<circle cx="405.266" cy="75" r="35" fill="#936DAA"/>
<path d="M396.623 75.973L395.629 75.133C397.113 74.069 397.813 72.949 397.981 71.255H396.273V70.093H399.353C399.353 72.655 398.653 74.447 396.623 75.973ZM392.423 70.093H395.783C395.783 72.613 394.957 74.153 392.983 75.539L392.045 74.643C393.417 73.733 394.187 72.809 394.397 71.255H392.423V70.093ZM395.195 79.655V80.789H402.447V81.923H393.781V78.605H400.557V77.541H393.753V76.421H401.971V79.655H395.195ZM401.971 72.053H403.763V73.243H401.971V75.861H400.529V69.435H401.971V72.053ZM407.78 78.437V80.719H413.59V78.437H407.78ZM406.366 81.881V77.289H415.004V81.881H406.366ZM414.654 74.545H416.432V75.707H404.966V74.545H408.242C408.648 73.047 408.746 71.927 408.774 71.115H406.044V69.953H410.174V70.499C410.174 71.297 410.174 72.669 409.67 74.545H413.212C413.562 73.047 413.632 71.941 413.646 71.115H410.958V69.953H415.06V70.611C415.06 71.479 415.06 72.767 414.654 74.545Z" fill="#EFEFEF"/>
<circle cx="464.266" cy="178" r="35" fill="#936DAA"/>
<path d="M465.838 177.993L465.138 179.113C463.682 178.665 462.604 177.727 462.03 176.537C461.456 177.825 460.378 178.847 458.866 179.337L458.138 178.203C460.126 177.587 461.274 176.033 461.274 174.409V174.353H458.53V173.191H465.446V174.353H462.744V174.409C462.744 175.949 463.892 177.405 465.838 177.993ZM467.028 183.761V182.361H461.624V183.761H467.028ZM467.028 181.227V179.869H468.456V184.923H460.196V179.869H461.624V181.227H467.028ZM467.014 172.421H468.456V179.295H467.014V172.421Z" fill="#EFEFEF"/>
</svg>
