<svg width="18" height="22" viewBox="0 0 18 22" fill="none" xmlns="http://www.w3.org/2000/svg">
<g id="Vector">
<g id="vector-10">
<path fill-rule="evenodd" clip-rule="evenodd" d="M9.27703 4.99205L1.41644 14.7998C1.28195 14.9558 1.20194 15.1514 1.18854 15.3569L1.00195 19.3858C1.05695 19.9191 1.51504 20.3189 2.05083 20.3014L6.0491 19.3538C6.25035 19.3027 6.43008 19.1888 6.56221 19.0286L14.6121 8.99032M9.28092 4.99208L11.3973 2.35322C11.8901 1.65264 12.8473 1.46461 13.5684 1.92674L16.5498 4.40833C16.8394 4.6985 17.0011 5.09238 16.9988 5.50236C16.9966 5.91233 16.8306 6.30441 16.5378 6.59138L14.6119 8.99034M9.28092 4.99205C9.6655 7.55843 12.0405 9.33971 14.6119 8.99032L9.28092 4.99205Z" fill="#CECECE"/>
<path d="M9.86227 5.4611C10.1213 5.13788 10.0693 4.66587 9.74608 4.40682C9.42286 4.14777 8.95085 4.19979 8.6918 4.52301L9.86227 5.4611ZM1.41644 14.7998L1.98447 15.2895C1.99033 15.2827 1.99606 15.2758 2.00167 15.2688L1.41644 14.7998ZM1.18854 15.3569L0.439996 15.3081L0.439342 15.3222L1.18854 15.3569ZM1.00195 19.3858L0.252756 19.3511C0.251031 19.3884 0.252086 19.4257 0.255911 19.4628L1.00195 19.3858ZM2.05083 20.3014L2.07535 21.051C2.12537 21.0494 2.1751 21.0427 2.22379 21.0312L2.05083 20.3014ZM6.0491 19.3538L6.22208 20.0837L6.23372 20.0807L6.0491 19.3538ZM6.56221 19.0286L7.14082 19.5059L7.14732 19.4978L6.56221 19.0286ZM15.1972 9.45952C15.4563 9.13638 15.4044 8.66435 15.0813 8.40521C14.7581 8.14608 14.2861 8.19797 14.0269 8.52112L15.1972 9.45952ZM8.69584 4.52283C8.43669 4.84596 8.48855 5.318 8.81168 5.57715C9.1348 5.83631 9.60684 5.78445 9.86599 5.46132L8.69584 4.52283ZM11.3973 2.35322L11.9824 2.82246C11.9923 2.81017 12.0017 2.79757 12.0108 2.78469L11.3973 2.35322ZM13.5684 1.92674L14.0482 1.3503C14.0243 1.33042 13.9992 1.31204 13.9731 1.29527L13.5684 1.92674ZM16.5498 4.40833L17.0806 3.87849C17.0643 3.86218 17.0473 3.84663 17.0296 3.83189L16.5498 4.40833ZM16.9988 5.50236L17.7488 5.50648V5.50648L16.9988 5.50236ZM16.5378 6.59138L16.0128 6.05574C15.9916 6.07658 15.9716 6.09866 15.9529 6.12187L16.5378 6.59138ZM14.0271 8.52083C13.7678 8.84384 13.8194 9.3159 14.1424 9.5752C14.4654 9.83451 14.9375 9.78286 15.1968 9.45985L14.0271 8.52083ZM10.0226 4.8809C9.96125 4.47126 9.57941 4.18895 9.16977 4.25033C8.76013 4.31172 8.47781 4.69356 8.5392 5.1032L10.0226 4.8809ZM14.7129 9.73349C15.1234 9.67772 15.4109 9.29978 15.3551 8.88934C15.2993 8.4789 14.9214 8.19138 14.511 8.24715L14.7129 9.73349ZM8.6918 4.52301L0.831208 14.3308L2.00167 15.2688L9.86227 5.4611L8.6918 4.52301ZM0.848409 14.3101C0.607469 14.5895 0.464141 14.9399 0.440129 15.3081L1.93695 15.4057C1.93974 15.3628 1.95643 15.3221 1.98447 15.2895L0.848409 14.3101ZM0.439342 15.3222L0.252756 19.3511L1.75115 19.4205L1.93774 15.3916L0.439342 15.3222ZM0.255911 19.4628C0.351319 20.3878 1.14594 21.0814 2.07535 21.051L2.02631 19.5518C1.88414 19.5565 1.76259 19.4504 1.748 19.3089L0.255911 19.4628ZM2.22379 21.0312L6.22206 20.0836L5.87614 18.624L1.87787 19.5716L2.22379 21.0312ZM6.23372 20.0807C6.58947 19.9904 6.90719 19.789 7.14076 19.5059L5.98366 18.5514C5.95297 18.5886 5.91122 18.615 5.86448 18.6269L6.23372 20.0807ZM7.14732 19.4978L15.1972 9.45952L14.0269 8.52112L5.9771 18.5594L7.14732 19.4978ZM9.86599 5.46132L11.9824 2.82246L10.8123 1.88398L8.69584 4.52283L9.86599 5.46132ZM12.0108 2.78469C12.2725 2.41265 12.7808 2.31279 13.1637 2.5582L13.9731 1.29527C12.9137 0.616434 11.5077 0.892641 10.7839 1.92175L12.0108 2.78469ZM13.0886 2.50318L16.07 4.98477L17.0296 3.83189L14.0482 1.3503L13.0886 2.50318ZM16.019 4.93817C16.1672 5.08672 16.25 5.28835 16.2488 5.49824L17.7488 5.50648C17.7522 4.8964 17.5116 4.31028 17.0806 3.87849L16.019 4.93817ZM16.2488 5.49824C16.2477 5.70812 16.1627 5.90883 16.0128 6.05574L17.0627 7.12702C17.4985 6.69999 17.7455 6.11655 17.7488 5.50648L16.2488 5.49824ZM15.9529 6.12187L14.0271 8.52083L15.1968 9.45985L17.1226 7.06089L15.9529 6.12187ZM8.5392 5.1032C8.98457 8.07525 11.735 10.1381 14.7129 9.73349L14.511 8.24715C12.346 8.54131 10.3464 7.0416 10.0226 4.8809L8.5392 5.1032Z" fill="#464646"/>
</g>
</g>
</svg>
