<svg width="32" height="32" viewBox="0 0 32 32" fill="none" xmlns="http://www.w3.org/2000/svg">
<rect width="32" height="32" rx="16" fill="#D33B4D"/>
<path fill-rule="evenodd" clip-rule="evenodd" d="M18.75 11.7744C18.75 13.2932 17.5188 14.5244 16 14.5244C14.4812 14.5244 13.25 13.2932 13.25 11.7744C13.25 10.2556 14.4812 9.02441 16 9.02441C17.5188 9.02441 18.75 10.2556 18.75 11.7744Z" stroke="#FFEFF1" stroke-width="1.5" stroke-linecap="round" stroke-linejoin="round"/>
<path d="M11.2497 19.7585C11.2374 19.3445 10.8918 19.0188 10.4778 19.0311C10.0637 19.0434 9.73804 19.389 9.75033 19.803L11.2497 19.7585ZM13.885 22.9748V22.2248C13.8779 22.2248 13.8708 22.2249 13.8637 22.2251L13.885 22.9748ZM18.115 22.9748L18.1363 22.2251C18.1292 22.2249 18.1221 22.2248 18.115 22.2248V22.9748ZM22.2497 19.803C22.262 19.389 21.9363 19.0434 21.5222 19.0311C21.1082 19.0188 20.7626 19.3445 20.7503 19.7585L22.2497 19.803ZM20.7503 19.658C20.7626 20.0721 21.1082 20.3977 21.5222 20.3855C21.9363 20.3732 22.262 20.0276 22.2497 19.6135L20.7503 19.658ZM18.115 16.4418V17.1918C18.1221 17.1918 18.1292 17.1917 18.1363 17.1915L18.115 16.4418ZM13.885 16.4418L13.8637 17.1915C13.8708 17.1917 13.8779 17.1918 13.885 17.1918V16.4418ZM9.75033 19.6135C9.73804 20.0276 10.0637 20.3732 10.4778 20.3855C10.8918 20.3977 11.2374 20.0721 11.2497 19.658L9.75033 19.6135ZM9.75033 19.803C9.8165 22.0329 11.6763 23.7878 13.9063 23.7245L13.8637 22.2251C12.4611 22.2649 11.2913 21.1611 11.2497 19.7585L9.75033 19.803ZM13.885 23.7248H18.115V22.2248H13.885V23.7248ZM18.0937 23.7245C20.3237 23.7878 22.1835 22.0329 22.2497 19.803L20.7503 19.7585C20.7087 21.1611 19.5389 22.2649 18.1363 22.2251L18.0937 23.7245ZM22.2497 19.6135C22.1835 17.3837 20.3237 15.6288 18.0937 15.6921L18.1363 17.1915C19.5389 17.1517 20.7087 18.2555 20.7503 19.658L22.2497 19.6135ZM18.115 15.6918H13.885V17.1918H18.115V15.6918ZM13.9063 15.6921C11.6763 15.6288 9.8165 17.3837 9.75033 19.6135L11.2497 19.658C11.2913 18.2555 12.4611 17.1517 13.8637 17.1915L13.9063 15.6921Z" fill="#FFEFF1"/>
</svg>
